<svg width="640" height="95" viewBox="0 0 640 95" fill="none" xmlns="http://www.w3.org/2000/svg">
<mask id="path-1-inside-1_2:153" fill="white">
<path fill-rule="evenodd" clip-rule="evenodd" d="M304.998 67H20C8.95431 67 0 58.0457 0 47C0 35.9543 8.95431 27 20 27H304.998C309.176 23.8604 314.371 22 320 22C325.629 22 330.824 23.8604 335.002 27H620C631.046 27 640 35.9543 640 47C640 58.0457 631.046 67 620 67H335.002C330.824 70.1396 325.629 72 320 72C314.371 72 309.176 70.1396 304.998 67Z"/>
</mask>
<path fill-rule="evenodd" clip-rule="evenodd" d="M304.998 67H20C8.95431 67 0 58.0457 0 47C0 35.9543 8.95431 27 20 27H304.998C309.176 23.8604 314.371 22 320 22C325.629 22 330.824 23.8604 335.002 27H620C631.046 27 640 35.9543 640 47C640 58.0457 631.046 67 620 67H335.002C330.824 70.1396 325.629 72 320 72C314.371 72 309.176 70.1396 304.998 67Z" fill="#FCCA36"/>
<path d="M304.998 67L307.4 63.802L306.333 63H304.998V67ZM304.998 27V31H306.333L307.4 30.198L304.998 27ZM335.002 27L332.6 30.198L333.667 31H335.002V27ZM335.002 67V63H333.667L332.6 63.802L335.002 67ZM304.998 63H20V71H304.998V63ZM20 63C11.1634 63 4 55.8366 4 47H-4C-4 60.2548 6.74517 71 20 71V63ZM4 47C4 38.1634 11.1634 31 20 31V23C6.74517 23 -4 33.7452 -4 47H4ZM20 31H304.998V23H20V31ZM307.4 30.198C310.91 27.561 315.267 26 320 26V18C313.475 18 307.443 20.1599 302.595 23.802L307.4 30.198ZM320 26C324.733 26 329.09 27.561 332.6 30.198L337.405 23.802C332.557 20.1599 326.525 18 320 18V26ZM335.002 31H620V23H335.002V31ZM620 31C628.837 31 636 38.1634 636 47H644C644 33.7452 633.255 23 620 23V31ZM636 47C636 55.8366 628.837 63 620 63V71C633.255 71 644 60.2548 644 47H636ZM620 63H335.002V71H620V63ZM332.6 63.802C329.09 66.439 324.733 68 320 68V76C326.525 76 332.557 73.8401 337.405 70.198L332.6 63.802ZM320 68C315.267 68 310.91 66.439 307.4 63.802L302.595 70.198C307.443 73.8401 313.475 76 320 76V68Z" fill="white" mask="url(#path-1-inside-1_2:153)"/>
<rect x="309" y="36" width="22" height="22" rx="11" fill="black" fill-opacity="0.5"/>
<path d="M33 83C33 89.6274 27.6274 95 21 95V95C14.3726 95 9 89.6274 9 83L9 47L33 47L33 83Z" fill="#FCCA36" fill-opacity="0.08"/>
<path d="M9 12C9 5.37258 14.3726 0 21 0V0C27.6274 0 33 5.37258 33 12V48H9V12Z" fill="#FCCA36"/>
<circle cx="21" cy="47" r="12" fill="white"/>
<path d="M19.1016 17H17.291V12.043L17.3086 11.2285L17.3379 10.3379C17.0371 10.6387 16.8281 10.8359 16.7109 10.9297L15.7266 11.7207L14.8535 10.6309L17.6133 8.43359H19.1016V17ZM27.4219 12.7168C27.4219 14.2129 27.1758 15.3203 26.6836 16.0391C26.1953 16.7578 25.4414 17.1172 24.4219 17.1172C23.4336 17.1172 22.6875 16.7461 22.1836 16.0039C21.6836 15.2617 21.4336 14.166 21.4336 12.7168C21.4336 11.2051 21.6777 10.0918 22.166 9.37695C22.6543 8.6582 23.4062 8.29883 24.4219 8.29883C25.4102 8.29883 26.1562 8.67383 26.6602 9.42383C27.168 10.1738 27.4219 11.2715 27.4219 12.7168ZM23.2324 12.7168C23.2324 13.7676 23.3223 14.5215 23.502 14.9785C23.6855 15.4316 23.9922 15.6582 24.4219 15.6582C24.8438 15.6582 25.1484 15.4277 25.3359 14.9668C25.5234 14.5059 25.6172 13.7559 25.6172 12.7168C25.6172 11.666 25.5215 10.9121 25.3301 10.4551C25.1426 9.99414 24.8398 9.76367 24.4219 9.76367C23.9961 9.76367 23.6914 9.99414 23.5078 10.4551C23.3242 10.9121 23.2324 11.666 23.2324 12.7168Z" fill="black" fill-opacity="0.5"/>
<path d="M61 83C61 89.6274 55.6274 95 49 95V95C42.3726 95 37 89.6274 37 83L37 47L61 47L61 83Z" fill="#FCCA36" fill-opacity="0.08"/>
<path d="M37 12C37 5.37258 42.3726 0 49 0V0C55.6274 0 61 5.37258 61 12V48H37V12Z" fill="#FCCA36"/>
<circle cx="49" cy="47" r="12" fill="white"/>
<path d="M52.0059 12.0898C52.0059 13.7773 51.6504 15.0371 50.9395 15.8691C50.2285 16.7012 49.1523 17.1172 47.7109 17.1172C47.2031 17.1172 46.8184 17.0898 46.5566 17.0352V15.582C46.8848 15.6641 47.2285 15.7051 47.5879 15.7051C48.1934 15.7051 48.6914 15.6172 49.082 15.4414C49.4727 15.2617 49.7715 14.9824 49.9785 14.6035C50.1855 14.2207 50.3047 13.6953 50.3359 13.0273H50.2656C50.0391 13.3945 49.7773 13.6523 49.4805 13.8008C49.1836 13.9492 48.8125 14.0234 48.3672 14.0234C47.6211 14.0234 47.0332 13.7852 46.6035 13.3086C46.1738 12.8281 45.959 12.1621 45.959 11.3105C45.959 10.3926 46.2188 9.66797 46.7383 9.13672C47.2617 8.60156 47.9727 8.33398 48.8711 8.33398C49.5039 8.33398 50.0566 8.48242 50.5293 8.7793C51.0059 9.07617 51.3711 9.50781 51.625 10.0742C51.8789 10.6367 52.0059 11.3086 52.0059 12.0898ZM48.9062 9.78711C48.5312 9.78711 48.2383 9.91602 48.0273 10.1738C47.8164 10.4316 47.7109 10.8027 47.7109 11.2871C47.7109 11.7012 47.8066 12.0293 47.998 12.2715C48.1895 12.5137 48.4805 12.6348 48.8711 12.6348C49.2383 12.6348 49.5527 12.5156 49.8145 12.2773C50.0762 12.0352 50.207 11.7578 50.207 11.4453C50.207 10.9805 50.084 10.5879 49.8379 10.2676C49.5957 9.94727 49.2852 9.78711 48.9062 9.78711Z" fill="black" fill-opacity="0.5"/>
<path d="M89 83C89 89.6274 83.6274 95 77 95V95C70.3726 95 65 89.6274 65 83L65 47L89 47L89 83Z" fill="#FCCA36" fill-opacity="0.08"/>
<path d="M65 12C65 5.37258 70.3726 0 77 0V0C83.6274 0 89 5.37258 89 12V48H65V12Z" fill="#FCCA36"/>
<circle cx="77" cy="47" r="12" fill="white"/>
<path d="M77.0059 8.32227C77.8262 8.32227 78.4863 8.50977 78.9863 8.88477C79.4902 9.25586 79.7422 9.75781 79.7422 10.3906C79.7422 10.8281 79.6211 11.2188 79.3789 11.5625C79.1367 11.9023 78.7461 12.207 78.207 12.4766C78.8477 12.8203 79.3066 13.1797 79.584 13.5547C79.8652 13.9258 80.0059 14.334 80.0059 14.7793C80.0059 15.4824 79.7305 16.0488 79.1797 16.4785C78.6289 16.9043 77.9043 17.1172 77.0059 17.1172C76.0684 17.1172 75.332 16.918 74.7969 16.5195C74.2617 16.1211 73.9941 15.5566 73.9941 14.8262C73.9941 14.3379 74.123 13.9043 74.3809 13.5254C74.6426 13.1465 75.0605 12.8125 75.6348 12.5234C75.1465 12.2148 74.7949 11.8848 74.5801 11.5332C74.3652 11.1816 74.2578 10.7969 74.2578 10.3789C74.2578 9.76562 74.5117 9.26953 75.0195 8.89062C75.5273 8.51172 76.1895 8.32227 77.0059 8.32227ZM75.6699 14.7207C75.6699 15.0566 75.7871 15.3184 76.0215 15.5059C76.2559 15.6934 76.5762 15.7871 76.9824 15.7871C77.4316 15.7871 77.7676 15.6914 77.9902 15.5C78.2129 15.3047 78.3242 15.0488 78.3242 14.7324C78.3242 14.4707 78.2129 14.2266 77.9902 14C77.7715 13.7695 77.4141 13.5254 76.918 13.2676C76.0859 13.6504 75.6699 14.1348 75.6699 14.7207ZM76.9941 9.64648C76.6855 9.64648 76.4355 9.72656 76.2441 9.88672C76.0566 10.043 75.9629 10.2539 75.9629 10.5195C75.9629 10.7539 76.0371 10.9648 76.1855 11.1523C76.3379 11.3359 76.6113 11.5254 77.0059 11.7207C77.3887 11.541 77.6562 11.3574 77.8086 11.1699C77.9609 10.9824 78.0371 10.7656 78.0371 10.5195C78.0371 10.25 77.9395 10.0371 77.7441 9.88086C77.5488 9.72461 77.2988 9.64648 76.9941 9.64648Z" fill="black" fill-opacity="0.5"/>
<path d="M117 83C117 89.6274 111.627 95 105 95V95C98.3726 95 93 89.6274 93 83L93 47L117 47L117 83Z" fill="#FCCA36" fill-opacity="0.08"/>
<path d="M93 12C93 5.37258 98.3726 0 105 0V0C111.627 0 117 5.37258 117 12V48H93V12Z" fill="#FCCA36"/>
<circle cx="105" cy="47" r="12" fill="white"/>
<path d="M102.902 17L106.119 9.96875H101.895V8.44531H108.041V9.58203L104.801 17H102.902Z" fill="black" fill-opacity="0.5"/>
<path d="M145 83C145 89.6274 139.627 95 133 95V95C126.373 95 121 89.6274 121 83L121 47L145 47L145 83Z" fill="#FCCA36" fill-opacity="0.08"/>
<path d="M121 12C121 5.37258 126.373 0 133 0V0C139.627 0 145 5.37258 145 12V48H121V12Z" fill="#FCCA36"/>
<circle cx="133" cy="47" r="12" fill="white"/>
<path d="M129.994 13.3613C129.994 11.666 130.352 10.4043 131.066 9.57617C131.785 8.74805 132.859 8.33398 134.289 8.33398C134.777 8.33398 135.16 8.36328 135.438 8.42188V9.86914C135.09 9.79102 134.746 9.75195 134.406 9.75195C133.785 9.75195 133.277 9.8457 132.883 10.0332C132.492 10.2207 132.199 10.498 132.004 10.8652C131.809 11.2324 131.693 11.7539 131.658 12.4297H131.734C132.121 11.7656 132.74 11.4336 133.592 11.4336C134.357 11.4336 134.957 11.6738 135.391 12.1543C135.824 12.6348 136.041 13.2988 136.041 14.1465C136.041 15.0605 135.783 15.7852 135.268 16.3203C134.752 16.8516 134.037 17.1172 133.123 17.1172C132.49 17.1172 131.938 16.9707 131.465 16.6777C130.996 16.3848 130.633 15.957 130.375 15.3945C130.121 14.832 129.994 14.1543 129.994 13.3613ZM133.088 15.6699C133.475 15.6699 133.771 15.541 133.979 15.2832C134.186 15.0215 134.289 14.6504 134.289 14.1699C134.289 13.752 134.191 13.4238 133.996 13.1855C133.805 12.9434 133.514 12.8223 133.123 12.8223C132.756 12.8223 132.441 12.9414 132.18 13.1797C131.922 13.418 131.793 13.6953 131.793 14.0117C131.793 14.4766 131.914 14.8691 132.156 15.1895C132.402 15.5098 132.713 15.6699 133.088 15.6699Z" fill="black" fill-opacity="0.5"/>
<path d="M173 83C173 89.6274 167.627 95 161 95V95C154.373 95 149 89.6274 149 83L149 47L173 47L173 83Z" fill="#FCCA36" fill-opacity="0.08"/>
<path d="M149 12C149 5.37258 154.373 0 161 0V0C167.627 0 173 5.37258 173 12V48H149V12Z" fill="#FCCA36"/>
<circle cx="161" cy="47" r="12" fill="white"/>
<path d="M161.17 11.5273C161.998 11.5273 162.656 11.7598 163.145 12.2246C163.637 12.6895 163.883 13.3262 163.883 14.1348C163.883 15.0918 163.588 15.8281 162.998 16.3438C162.408 16.8594 161.564 17.1172 160.467 17.1172C159.514 17.1172 158.744 16.9629 158.158 16.6543V15.0898C158.467 15.2539 158.826 15.3887 159.236 15.4941C159.646 15.5957 160.035 15.6465 160.402 15.6465C161.508 15.6465 162.061 15.1934 162.061 14.2871C162.061 13.4238 161.488 12.9922 160.344 12.9922C160.137 12.9922 159.908 13.0137 159.658 13.0566C159.408 13.0957 159.205 13.1387 159.049 13.1855L158.328 12.7988L158.65 8.43359H163.297V9.96875H160.238L160.08 11.6504L160.285 11.6094C160.523 11.5547 160.818 11.5273 161.17 11.5273Z" fill="black" fill-opacity="0.5"/>
<path d="M201 83C201 89.6274 195.627 95 189 95V95C182.373 95 177 89.6274 177 83L177 47L201 47L201 83Z" fill="#FCCA36" fill-opacity="0.08"/>
<path d="M177 12C177 5.37258 182.373 0 189 0V0C195.627 0 201 5.37258 201 12V48H177V12Z" fill="#FCCA36"/>
<circle cx="189" cy="47" r="12" fill="white"/>
<path d="M192.234 15.2246H191.203V17H189.434V15.2246H185.777V13.9648L189.533 8.43359H191.203V13.8184H192.234V15.2246ZM189.434 13.8184V12.3652C189.434 12.123 189.443 11.7715 189.463 11.3105C189.482 10.8496 189.498 10.582 189.51 10.5078H189.463C189.318 10.8281 189.145 11.1406 188.941 11.4453L187.371 13.8184H189.434Z" fill="black" fill-opacity="0.5"/>
<path d="M229 83C229 89.6274 223.627 95 217 95V95C210.373 95 205 89.6274 205 83L205 47L229 47L229 83Z" fill="#FCCA36" fill-opacity="0.08"/>
<path d="M205 12C205 5.37258 210.373 0 217 0V0C223.627 0 229 5.37258 229 12V48H205V12Z" fill="#FCCA36"/>
<circle cx="217" cy="47" r="12" fill="white"/>
<path d="M219.707 10.3496C219.707 10.8848 219.545 11.3398 219.221 11.7148C218.896 12.0898 218.441 12.3477 217.855 12.4883V12.5234C218.547 12.6094 219.07 12.8203 219.426 13.1562C219.781 13.4883 219.959 13.9375 219.959 14.5039C219.959 15.3281 219.66 15.9707 219.062 16.4316C218.465 16.8887 217.611 17.1172 216.502 17.1172C215.572 17.1172 214.748 16.9629 214.029 16.6543V15.1133C214.361 15.2812 214.727 15.418 215.125 15.5234C215.523 15.6289 215.918 15.6816 216.309 15.6816C216.906 15.6816 217.348 15.5801 217.633 15.377C217.918 15.1738 218.061 14.8477 218.061 14.3984C218.061 13.9961 217.896 13.7109 217.568 13.543C217.24 13.375 216.717 13.291 215.998 13.291H215.348V11.9023H216.01C216.674 11.9023 217.158 11.8164 217.463 11.6445C217.771 11.4688 217.926 11.1699 217.926 10.748C217.926 10.0996 217.52 9.77539 216.707 9.77539C216.426 9.77539 216.139 9.82227 215.846 9.91602C215.557 10.0098 215.234 10.1719 214.879 10.4023L214.041 9.1543C214.822 8.5918 215.754 8.31055 216.836 8.31055C217.723 8.31055 218.422 8.49023 218.934 8.84961C219.449 9.20898 219.707 9.70898 219.707 10.3496Z" fill="black" fill-opacity="0.5"/>
<path d="M257 83C257 89.6274 251.627 95 245 95V95C238.373 95 233 89.6274 233 83L233 47L257 47L257 83Z" fill="#FCCA36" fill-opacity="0.08"/>
<path d="M233 12C233 5.37258 238.373 0 245 0V0C251.627 0 257 5.37258 257 12V48H233V12Z" fill="#FCCA36"/>
<circle cx="245" cy="47" r="12" fill="white"/>
<path d="M248.041 17H242.053V15.7402L244.203 13.5664C244.84 12.9141 245.256 12.4629 245.451 12.2129C245.646 11.959 245.787 11.7246 245.873 11.5098C245.959 11.2949 246.002 11.0723 246.002 10.8418C246.002 10.498 245.906 10.2422 245.715 10.0742C245.527 9.90625 245.275 9.82227 244.959 9.82227C244.627 9.82227 244.305 9.89844 243.992 10.0508C243.68 10.2031 243.354 10.4199 243.014 10.7012L242.029 9.53516C242.451 9.17578 242.801 8.92188 243.078 8.77344C243.355 8.625 243.658 8.51172 243.986 8.43359C244.314 8.35156 244.682 8.31055 245.088 8.31055C245.623 8.31055 246.096 8.4082 246.506 8.60352C246.916 8.79883 247.234 9.07227 247.461 9.42383C247.688 9.77539 247.801 10.1777 247.801 10.6309C247.801 11.0254 247.73 11.3965 247.59 11.7441C247.453 12.0879 247.238 12.4414 246.945 12.8047C246.656 13.168 246.145 13.6855 245.41 14.3574L244.309 15.3945V15.4766H248.041V17Z" fill="black" fill-opacity="0.5"/>
<path d="M285 83C285 89.6274 279.627 95 273 95V95C266.373 95 261 89.6274 261 83L261 47L285 47L285 83Z" fill="#FCCA36" fill-opacity="0.08"/>
<path d="M261 12C261 5.37258 266.373 0 273 0V0C279.627 0 285 5.37258 285 12V48H261V12Z" fill="#FCCA36"/>
<circle cx="273" cy="47" r="12" fill="white"/>
<path d="M274.529 17H272.719V12.043L272.736 11.2285L272.766 10.3379C272.465 10.6387 272.256 10.8359 272.139 10.9297L271.154 11.7207L270.281 10.6309L273.041 8.43359H274.529V17Z" fill="black" fill-opacity="0.5"/>
<path d="M379 83C379 89.6274 373.627 95 367 95V95C360.373 95 355 89.6274 355 83L355 47L379 47L379 83Z" fill="#FCCA36" fill-opacity="0.08"/>
<path d="M355 12C355 5.37258 360.373 0 367 0V0C373.627 0 379 5.37258 379 12V48H355V12Z" fill="#FCCA36"/>
<circle cx="367" cy="47" r="12" fill="white"/>
<path d="M368.529 17H366.719V12.043L366.736 11.2285L366.766 10.3379C366.465 10.6387 366.256 10.8359 366.139 10.9297L365.154 11.7207L364.281 10.6309L367.041 8.43359H368.529V17Z" fill="black" fill-opacity="0.5"/>
<path d="M407 83C407 89.6274 401.627 95 395 95V95C388.373 95 383 89.6274 383 83L383 47L407 47L407 83Z" fill="#FCCA36" fill-opacity="0.08"/>
<path d="M383 12C383 5.37258 388.373 0 395 0V0C401.627 0 407 5.37258 407 12V48H383V12Z" fill="#FCCA36"/>
<circle cx="395" cy="47" r="12" fill="white"/>
<path d="M398.041 17H392.053V15.7402L394.203 13.5664C394.84 12.9141 395.256 12.4629 395.451 12.2129C395.646 11.959 395.787 11.7246 395.873 11.5098C395.959 11.2949 396.002 11.0723 396.002 10.8418C396.002 10.498 395.906 10.2422 395.715 10.0742C395.527 9.90625 395.275 9.82227 394.959 9.82227C394.627 9.82227 394.305 9.89844 393.992 10.0508C393.68 10.2031 393.354 10.4199 393.014 10.7012L392.029 9.53516C392.451 9.17578 392.801 8.92188 393.078 8.77344C393.355 8.625 393.658 8.51172 393.986 8.43359C394.314 8.35156 394.682 8.31055 395.088 8.31055C395.623 8.31055 396.096 8.4082 396.506 8.60352C396.916 8.79883 397.234 9.07227 397.461 9.42383C397.688 9.77539 397.801 10.1777 397.801 10.6309C397.801 11.0254 397.73 11.3965 397.59 11.7441C397.453 12.0879 397.238 12.4414 396.945 12.8047C396.656 13.168 396.145 13.6855 395.41 14.3574L394.309 15.3945V15.4766H398.041V17Z" fill="black" fill-opacity="0.5"/>
<path d="M435 83C435 89.6274 429.627 95 423 95V95C416.373 95 411 89.6274 411 83L411 47L435 47L435 83Z" fill="#FCCA36" fill-opacity="0.08"/>
<path d="M411 12C411 5.37258 416.373 0 423 0V0C429.627 0 435 5.37258 435 12V48H411V12Z" fill="#FCCA36"/>
<circle cx="423" cy="47" r="12" fill="white"/>
<path d="M425.707 10.3496C425.707 10.8848 425.545 11.3398 425.221 11.7148C424.896 12.0898 424.441 12.3477 423.855 12.4883V12.5234C424.547 12.6094 425.07 12.8203 425.426 13.1562C425.781 13.4883 425.959 13.9375 425.959 14.5039C425.959 15.3281 425.66 15.9707 425.062 16.4316C424.465 16.8887 423.611 17.1172 422.502 17.1172C421.572 17.1172 420.748 16.9629 420.029 16.6543V15.1133C420.361 15.2812 420.727 15.418 421.125 15.5234C421.523 15.6289 421.918 15.6816 422.309 15.6816C422.906 15.6816 423.348 15.5801 423.633 15.377C423.918 15.1738 424.061 14.8477 424.061 14.3984C424.061 13.9961 423.896 13.7109 423.568 13.543C423.24 13.375 422.717 13.291 421.998 13.291H421.348V11.9023H422.01C422.674 11.9023 423.158 11.8164 423.463 11.6445C423.771 11.4688 423.926 11.1699 423.926 10.748C423.926 10.0996 423.52 9.77539 422.707 9.77539C422.426 9.77539 422.139 9.82227 421.846 9.91602C421.557 10.0098 421.234 10.1719 420.879 10.4023L420.041 9.1543C420.822 8.5918 421.754 8.31055 422.836 8.31055C423.723 8.31055 424.422 8.49023 424.934 8.84961C425.449 9.20898 425.707 9.70898 425.707 10.3496Z" fill="black" fill-opacity="0.5"/>
<path d="M463 83C463 89.6274 457.627 95 451 95V95C444.373 95 439 89.6274 439 83L439 47L463 47L463 83Z" fill="#FCCA36" fill-opacity="0.08"/>
<path d="M439 12C439 5.37258 444.373 0 451 0V0C457.627 0 463 5.37258 463 12V48H439V12Z" fill="#FCCA36"/>
<circle cx="451" cy="47" r="12" fill="white"/>
<path d="M454.234 15.2246H453.203V17H451.434V15.2246H447.777V13.9648L451.533 8.43359H453.203V13.8184H454.234V15.2246ZM451.434 13.8184V12.3652C451.434 12.123 451.443 11.7715 451.463 11.3105C451.482 10.8496 451.498 10.582 451.51 10.5078H451.463C451.318 10.8281 451.145 11.1406 450.941 11.4453L449.371 13.8184H451.434Z" fill="black" fill-opacity="0.5"/>
<path d="M491 83C491 89.6274 485.627 95 479 95V95C472.373 95 467 89.6274 467 83L467 47L491 47L491 83Z" fill="#FCCA36" fill-opacity="0.08"/>
<path d="M467 12C467 5.37258 472.373 0 479 0V0C485.627 0 491 5.37258 491 12V48H467V12Z" fill="#FCCA36"/>
<circle cx="479" cy="47" r="12" fill="white"/>
<path d="M479.17 11.5273C479.998 11.5273 480.656 11.7598 481.145 12.2246C481.637 12.6895 481.883 13.3262 481.883 14.1348C481.883 15.0918 481.588 15.8281 480.998 16.3438C480.408 16.8594 479.564 17.1172 478.467 17.1172C477.514 17.1172 476.744 16.9629 476.158 16.6543V15.0898C476.467 15.2539 476.826 15.3887 477.236 15.4941C477.646 15.5957 478.035 15.6465 478.402 15.6465C479.508 15.6465 480.061 15.1934 480.061 14.2871C480.061 13.4238 479.488 12.9922 478.344 12.9922C478.137 12.9922 477.908 13.0137 477.658 13.0566C477.408 13.0957 477.205 13.1387 477.049 13.1855L476.328 12.7988L476.65 8.43359H481.297V9.96875H478.238L478.08 11.6504L478.285 11.6094C478.523 11.5547 478.818 11.5273 479.17 11.5273Z" fill="black" fill-opacity="0.5"/>
<path d="M519 83C519 89.6274 513.627 95 507 95V95C500.373 95 495 89.6274 495 83L495 47L519 47L519 83Z" fill="#FCCA36" fill-opacity="0.08"/>
<path d="M495 12C495 5.37258 500.373 0 507 0V0C513.627 0 519 5.37258 519 12V48H495V12Z" fill="#FCCA36"/>
<circle cx="507" cy="47" r="12" fill="white"/>
<path d="M503.994 13.3613C503.994 11.666 504.352 10.4043 505.066 9.57617C505.785 8.74805 506.859 8.33398 508.289 8.33398C508.777 8.33398 509.16 8.36328 509.438 8.42188V9.86914C509.09 9.79102 508.746 9.75195 508.406 9.75195C507.785 9.75195 507.277 9.8457 506.883 10.0332C506.492 10.2207 506.199 10.498 506.004 10.8652C505.809 11.2324 505.693 11.7539 505.658 12.4297H505.734C506.121 11.7656 506.74 11.4336 507.592 11.4336C508.357 11.4336 508.957 11.6738 509.391 12.1543C509.824 12.6348 510.041 13.2988 510.041 14.1465C510.041 15.0605 509.783 15.7852 509.268 16.3203C508.752 16.8516 508.037 17.1172 507.123 17.1172C506.49 17.1172 505.938 16.9707 505.465 16.6777C504.996 16.3848 504.633 15.957 504.375 15.3945C504.121 14.832 503.994 14.1543 503.994 13.3613ZM507.088 15.6699C507.475 15.6699 507.771 15.541 507.979 15.2832C508.186 15.0215 508.289 14.6504 508.289 14.1699C508.289 13.752 508.191 13.4238 507.996 13.1855C507.805 12.9434 507.514 12.8223 507.123 12.8223C506.756 12.8223 506.441 12.9414 506.18 13.1797C505.922 13.418 505.793 13.6953 505.793 14.0117C505.793 14.4766 505.914 14.8691 506.156 15.1895C506.402 15.5098 506.713 15.6699 507.088 15.6699Z" fill="black" fill-opacity="0.5"/>
<path d="M547 83C547 89.6274 541.627 95 535 95V95C528.373 95 523 89.6274 523 83L523 47L547 47L547 83Z" fill="#FCCA36" fill-opacity="0.08"/>
<path d="M523 12C523 5.37258 528.373 0 535 0V0C541.627 0 547 5.37258 547 12V48H523V12Z" fill="#FCCA36"/>
<circle cx="535" cy="47" r="12" fill="white"/>
<path d="M532.902 17L536.119 9.96875H531.895V8.44531H538.041V9.58203L534.801 17H532.902Z" fill="black" fill-opacity="0.5"/>
<path d="M575 83C575 89.6274 569.627 95 563 95V95C556.373 95 551 89.6274 551 83L551 47L575 47L575 83Z" fill="#FCCA36" fill-opacity="0.08"/>
<path d="M551 12C551 5.37258 556.373 0 563 0V0C569.627 0 575 5.37258 575 12V48H551V12Z" fill="#FCCA36"/>
<circle cx="563" cy="47" r="12" fill="white"/>
<path d="M563.006 8.32227C563.826 8.32227 564.486 8.50977 564.986 8.88477C565.49 9.25586 565.742 9.75781 565.742 10.3906C565.742 10.8281 565.621 11.2188 565.379 11.5625C565.137 11.9023 564.746 12.207 564.207 12.4766C564.848 12.8203 565.307 13.1797 565.584 13.5547C565.865 13.9258 566.006 14.334 566.006 14.7793C566.006 15.4824 565.73 16.0488 565.18 16.4785C564.629 16.9043 563.904 17.1172 563.006 17.1172C562.068 17.1172 561.332 16.918 560.797 16.5195C560.262 16.1211 559.994 15.5566 559.994 14.8262C559.994 14.3379 560.123 13.9043 560.381 13.5254C560.643 13.1465 561.061 12.8125 561.635 12.5234C561.146 12.2148 560.795 11.8848 560.58 11.5332C560.365 11.1816 560.258 10.7969 560.258 10.3789C560.258 9.76562 560.512 9.26953 561.02 8.89062C561.527 8.51172 562.189 8.32227 563.006 8.32227ZM561.67 14.7207C561.67 15.0566 561.787 15.3184 562.021 15.5059C562.256 15.6934 562.576 15.7871 562.982 15.7871C563.432 15.7871 563.768 15.6914 563.99 15.5C564.213 15.3047 564.324 15.0488 564.324 14.7324C564.324 14.4707 564.213 14.2266 563.99 14C563.771 13.7695 563.414 13.5254 562.918 13.2676C562.086 13.6504 561.67 14.1348 561.67 14.7207ZM562.994 9.64648C562.686 9.64648 562.436 9.72656 562.244 9.88672C562.057 10.043 561.963 10.2539 561.963 10.5195C561.963 10.7539 562.037 10.9648 562.186 11.1523C562.338 11.3359 562.611 11.5254 563.006 11.7207C563.389 11.541 563.656 11.3574 563.809 11.1699C563.961 10.9824 564.037 10.7656 564.037 10.5195C564.037 10.25 563.939 10.0371 563.744 9.88086C563.549 9.72461 563.299 9.64648 562.994 9.64648Z" fill="black" fill-opacity="0.5"/>
<path d="M603 83C603 89.6274 597.627 95 591 95V95C584.373 95 579 89.6274 579 83L579 47L603 47L603 83Z" fill="#FCCA36" fill-opacity="0.08"/>
<path d="M579 12C579 5.37258 584.373 0 591 0V0C597.627 0 603 5.37258 603 12V48H579V12Z" fill="#FCCA36"/>
<circle cx="591" cy="47" r="12" fill="white"/>
<path d="M594.006 12.0898C594.006 13.7773 593.65 15.0371 592.939 15.8691C592.229 16.7012 591.152 17.1172 589.711 17.1172C589.203 17.1172 588.818 17.0898 588.557 17.0352V15.582C588.885 15.6641 589.229 15.7051 589.588 15.7051C590.193 15.7051 590.691 15.6172 591.082 15.4414C591.473 15.2617 591.771 14.9824 591.979 14.6035C592.186 14.2207 592.305 13.6953 592.336 13.0273H592.266C592.039 13.3945 591.777 13.6523 591.48 13.8008C591.184 13.9492 590.812 14.0234 590.367 14.0234C589.621 14.0234 589.033 13.7852 588.604 13.3086C588.174 12.8281 587.959 12.1621 587.959 11.3105C587.959 10.3926 588.219 9.66797 588.738 9.13672C589.262 8.60156 589.973 8.33398 590.871 8.33398C591.504 8.33398 592.057 8.48242 592.529 8.7793C593.006 9.07617 593.371 9.50781 593.625 10.0742C593.879 10.6367 594.006 11.3086 594.006 12.0898ZM590.906 9.78711C590.531 9.78711 590.238 9.91602 590.027 10.1738C589.816 10.4316 589.711 10.8027 589.711 11.2871C589.711 11.7012 589.807 12.0293 589.998 12.2715C590.189 12.5137 590.48 12.6348 590.871 12.6348C591.238 12.6348 591.553 12.5156 591.814 12.2773C592.076 12.0352 592.207 11.7578 592.207 11.4453C592.207 10.9805 592.084 10.5879 591.838 10.2676C591.596 9.94727 591.285 9.78711 590.906 9.78711Z" fill="black" fill-opacity="0.5"/>
<path d="M631 83C631 89.6274 625.627 95 619 95V95C612.373 95 607 89.6274 607 83L607 47L631 47L631 83Z" fill="#FCCA36" fill-opacity="0.08"/>
<path d="M607 12C607 5.37258 612.373 0 619 0V0C625.627 0 631 5.37258 631 12V48H607V12Z" fill="#FCCA36"/>
<circle cx="619" cy="47" r="12" fill="white"/>
<path d="M617.102 17H615.291V12.043L615.309 11.2285L615.338 10.3379C615.037 10.6387 614.828 10.8359 614.711 10.9297L613.727 11.7207L612.854 10.6309L615.613 8.43359H617.102V17ZM625.422 12.7168C625.422 14.2129 625.176 15.3203 624.684 16.0391C624.195 16.7578 623.441 17.1172 622.422 17.1172C621.434 17.1172 620.688 16.7461 620.184 16.0039C619.684 15.2617 619.434 14.166 619.434 12.7168C619.434 11.2051 619.678 10.0918 620.166 9.37695C620.654 8.6582 621.406 8.29883 622.422 8.29883C623.41 8.29883 624.156 8.67383 624.66 9.42383C625.168 10.1738 625.422 11.2715 625.422 12.7168ZM621.232 12.7168C621.232 13.7676 621.322 14.5215 621.502 14.9785C621.686 15.4316 621.992 15.6582 622.422 15.6582C622.844 15.6582 623.148 15.4277 623.336 14.9668C623.523 14.5059 623.617 13.7559 623.617 12.7168C623.617 11.666 623.521 10.9121 623.33 10.4551C623.143 9.99414 622.84 9.76367 622.422 9.76367C621.996 9.76367 621.691 9.99414 621.508 10.4551C621.324 10.9121 621.232 11.666 621.232 12.7168Z" fill="black" fill-opacity="0.5"/>
</svg>
