<svg width="24" height="75" viewBox="0 0 24 75" fill="none" xmlns="http://www.w3.org/2000/svg">
<path d="M24 63C24 69.6274 18.6274 75 12 75V75C5.37258 75 3.27361e-07 69.6274 7.31182e-07 63L3.65591e-06 15C4.05973e-06 8.37258 5.37259 3 12 3V3C18.6274 3 24 8.37258 24 15L24 63Z" fill="#F24755" fill-opacity="0.25"/>
<path d="M2 60L2 12C2 6.47715 6.47716 2 12 2C17.5229 2 22 6.47715 22 12L22 60C22 65.5228 17.5228 70 12 70C6.47715 70 2 65.5228 2 60Z" fill="#F24755" stroke="white" stroke-width="4"/>
<circle cx="12" cy="12" r="6" fill="white"/>
<path d="M7.14648 43.1387V41H16.8438V43.1387H7.14648ZM7.14648 46.918V44.7793H16.8438V46.918H7.14648Z" fill="white"/>
</svg>
